<?xml version="1.0" encoding="utf-8"?>
<!-- Generator: Adobe Illustrator 28.2.0, SVG Export Plug-In . SVG Version: 6.00 Build 0)  -->
<svg version="1.1" xmlns="http://www.w3.org/2000/svg" xmlns:xlink="http://www.w3.org/1999/xlink" x="0px" y="0px"
	 viewBox="0 0 1080 1080" style="enable-background:new 0 0 1080 1080;" xml:space="preserve">
<style type="text/css">
	.st0{display:none;}
	.st1{display:inline;fill:#FBFBFF;}
	.st2{fill:#101319;}
	.st3{fill:#0F3343;}
</style>
<g id="misc" class="st0">
</g>
<g id="bg" class="st0">
	<rect x="-34.83" y="-16.96" class="st1" width="1148.94" height="1112.17"/>
</g>
<g id="Logo">
	<g>
		<path class="st2" d="M1042.06,199.74L700.83,423.65c-47.58,31.29-97.29,63.88-149.1,97.78c-51.83,33.88-103.34,67.63-154.49,101.2
			c-51.18,33.57-101.04,66.33-149.59,98.25c-48.57,31.94-93.36,61.27-134.43,88L1.77,881.22V197.8h111.46v482.99L844.55,197.8
			L1042.06,199.74z"/>
		<path class="st3" d="M1078.23,882.2H912.02L744.83,738.49c-20.87-18.26-41.4-36.18-61.58-53.79
			c-20.22-17.61-38.14-32.9-53.79-45.96c-18.26-15.65-35.85-30.31-52.79-43.99l-0.98-0.98l93.85-61.58l0.98-1
			c51.49,44.35,95.97,82.47,133.45,114.41c37.48,31.94,71.38,61.11,101.69,87.49c30.31,26.4,58.99,51.18,86.04,74.32
			C1018.75,830.55,1047.59,855.49,1078.23,882.2z"/>
	</g>
</g>
</svg>
